<svg xmlns="http://www.w3.org/2000/svg" xmlns:xlink="http://www.w3.org/1999/xlink" width="342" zoomAndPan="magnify" viewBox="0 0 256.5 77.999999" height="104" preserveAspectRatio="xMidYMid meet" version="1.0"><defs><g/><clipPath id="4cc4709af6"><path d="M 0.714844 0.425781 L 66.714844 0.425781 L 66.714844 77 L 0.714844 77 Z M 0.714844 0.425781 " clip-rule="nonzero"/></clipPath></defs><g clip-path="url(#4cc4709af6)"><path fill="#ffffff" d="M 11.960938 11.683594 C 5.023438 18.609375 0.714844 28.195312 0.714844 38.769531 C 0.714844 47.988281 3.859375 56.355469 8.929688 62.914062 C 13.09375 68.316406 18.617188 72.472656 24.765625 74.789062 C 30.855469 77.109375 37.570312 77.644531 44.28125 75.777344 C 50.203125 74.140625 56.121094 70.632812 61.589844 64.867188 C 61.789062 64.640625 61.871094 64.355469 61.757812 64.046875 C 61.675781 63.761719 61.476562 63.535156 61.164062 63.480469 C 54.082031 61.753906 50.484375 58.222656 47.425781 55.253906 C 45.214844 53.074219 43.347656 51.238281 40.515625 51.238281 C 39.496094 51.238281 39.070312 51.265625 38.671875 51.265625 C 34.367188 51.351562 31.25 51.40625 27.144531 47.335938 C 26.292969 46.488281 25.585938 45.527344 24.964844 44.539062 C 24.339844 43.492188 23.859375 42.390625 23.546875 41.285156 C 23.378906 40.71875 23.40625 40.15625 23.605469 39.617188 C 23.660156 39.53125 23.6875 39.449219 23.746094 39.363281 C 23.972656 38.96875 24.285156 38.628906 24.707031 38.402344 C 25.21875 38.121094 25.785156 38.007812 26.324219 38.089844 C 26.890625 38.203125 27.398438 38.457031 27.796875 38.910156 L 27.910156 39.023438 C 27.910156 39.023438 27.910156 39.023438 27.910156 39.050781 L 28.050781 39.164062 C 29.296875 40.4375 30.910156 41.089844 32.5 41.144531 C 34.054688 41.171875 35.558594 40.636719 36.691406 39.503906 C 37.851562 38.375 38.390625 36.847656 38.332031 35.320312 C 38.277344 33.738281 37.625 32.125 36.351562 30.851562 C 35.753906 30.230469 35.074219 29.777344 34.339844 29.46875 C 33.601562 29.128906 32.808594 28.929688 32.015625 28.902344 C 31.449219 28.875 30.910156 28.648438 30.515625 28.308594 C 30.089844 27.941406 29.808594 27.460938 29.695312 26.894531 C 29.582031 26.359375 29.664062 25.792969 29.890625 25.3125 C 30.148438 24.804688 30.542969 24.40625 31.054688 24.152344 C 33.234375 23.078125 35.753906 22.683594 38.21875 22.824219 C 40.570312 22.992188 42.867188 23.644531 44.847656 24.773438 C 46.886719 25.933594 48.585938 27.574219 49.605469 29.636719 C 50.34375 31.136719 50.710938 32.859375 50.570312 34.726562 L 50.570312 34.753906 C 50.570312 34.894531 50.570312 35.066406 50.570312 35.265625 C 50.570312 37.300781 51.421875 39.730469 52.835938 41.738281 C 54.167969 43.578125 55.980469 44.988281 57.992188 45.160156 C 58.105469 45.160156 58.246094 45.160156 58.386719 45.160156 C 60.03125 45.160156 61.53125 44.507812 62.609375 43.40625 C 63.714844 42.332031 64.363281 40.832031 64.363281 39.195312 L 64.363281 11.996094 C 64.363281 11.65625 64.167969 11.375 63.855469 11.230469 C 63.542969 11.089844 63.203125 11.175781 62.949219 11.402344 L 62.128906 12.222656 C 61.304688 13.042969 59.945312 13.042969 59.125 12.222656 C 58.304688 11.402344 58.304688 10.042969 59.125 9.222656 L 66.460938 1.988281 C 66.714844 1.730469 66.773438 1.394531 66.632812 1.054688 C 66.519531 0.742188 66.207031 0.542969 65.867188 0.542969 L 39.097656 0.460938 C 28.503906 0.460938 18.902344 4.757812 11.960938 11.683594 Z M 58.21875 17.113281 C 59.890625 17.113281 61.222656 18.46875 61.222656 20.109375 C 61.222656 21.777344 59.890625 23.105469 58.21875 23.105469 C 56.546875 23.105469 55.214844 21.777344 55.214844 20.109375 C 55.214844 18.46875 56.546875 17.113281 58.21875 17.113281 Z M 58.21875 17.113281 " fill-opacity="1" fill-rule="evenodd"/></g><g fill="#ffffff" fill-opacity="1"><g transform="translate(75.845402, 33.525806)"><g><path d="M 14.21875 -8.5625 L 16.78125 -8.5625 L 16.78125 -2.140625 C 15.882812 -1.460938 14.828125 -0.914062 13.609375 -0.5 C 12.390625 -0.0820312 11.191406 0.125 10.015625 0.125 C 7.441406 0.125 5.269531 -0.722656 3.5 -2.421875 C 1.726562 -4.128906 0.84375 -6.226562 0.84375 -8.71875 C 0.84375 -11.207031 1.738281 -13.296875 3.53125 -14.984375 C 5.320312 -16.671875 7.539062 -17.515625 10.1875 -17.515625 C 11.414062 -17.515625 12.625 -17.289062 13.8125 -16.84375 C 15 -16.40625 16.023438 -15.8125 16.890625 -15.0625 L 15.21875 -12.90625 C 13.789062 -14.226562 12.113281 -14.890625 10.1875 -14.890625 C 8.40625 -14.890625 6.898438 -14.289062 5.671875 -13.09375 C 4.441406 -11.90625 3.828125 -10.445312 3.828125 -8.71875 C 3.828125 -6.976562 4.445312 -5.507812 5.6875 -4.3125 C 6.925781 -3.113281 8.4375 -2.515625 10.21875 -2.515625 C 11.5625 -2.515625 12.894531 -2.914062 14.21875 -3.71875 Z M 14.21875 -8.5625 "/></g></g></g><g fill="#ffffff" fill-opacity="1"><g transform="translate(94.488421, 33.525806)"><g><path d="M 14.75 -14.796875 L 5.234375 -14.796875 L 5.234375 -10.09375 L 13.75 -10.09375 L 13.75 -7.453125 L 5.234375 -7.453125 L 5.234375 -2.640625 L 15.046875 -2.640625 L 15.046875 0 L 2.296875 0 L 2.296875 -17.4375 L 14.75 -17.4375 Z M 14.75 -14.796875 "/></g></g></g><g fill="#ffffff" fill-opacity="1"><g transform="translate(110.81662, 33.525806)"><g><path d="M 14.75 -14.796875 L 5.234375 -14.796875 L 5.234375 -10.09375 L 13.75 -10.09375 L 13.75 -7.453125 L 5.234375 -7.453125 L 5.234375 -2.640625 L 15.046875 -2.640625 L 15.046875 0 L 2.296875 0 L 2.296875 -17.4375 L 14.75 -17.4375 Z M 14.75 -14.796875 "/></g></g></g><g fill="#ffffff" fill-opacity="1"><g transform="translate(127.14482, 33.525806)"><g><path d="M 13.921875 0 L 8.1875 -7.703125 L 5.234375 -4.4375 L 5.234375 0 L 2.296875 0 L 2.296875 -17.4375 L 5.234375 -17.4375 L 5.234375 -8.421875 L 13.546875 -17.4375 L 17.015625 -17.4375 L 10.265625 -9.984375 L 17.453125 0 Z M 13.921875 0 "/></g></g></g><g fill="#ffffff" fill-opacity="1"><g transform="translate(75.143644, 62.775187)"><g><path d="M 9.890625 -20.65625 C 12.941406 -20.65625 15.625 -19.894531 17.9375 -18.375 L 15.984375 -14.328125 C 14.910156 -14.941406 13.757812 -15.445312 12.53125 -15.84375 C 11.3125 -16.25 10.285156 -16.453125 9.453125 -16.453125 C 7.953125 -16.453125 7.203125 -15.957031 7.203125 -14.96875 C 7.203125 -14.320312 7.570312 -13.800781 8.3125 -13.40625 C 9.050781 -13.019531 9.953125 -12.6875 11.015625 -12.40625 C 12.078125 -12.125 13.132812 -11.785156 14.1875 -11.390625 C 15.25 -10.992188 16.148438 -10.347656 16.890625 -9.453125 C 17.628906 -8.554688 18 -7.425781 18 -6.0625 C 18 -4.101562 17.226562 -2.570312 15.6875 -1.46875 C 14.15625 -0.375 12.203125 0.171875 9.828125 0.171875 C 8.140625 0.171875 6.46875 -0.117188 4.8125 -0.703125 C 3.15625 -1.285156 1.71875 -2.082031 0.5 -3.09375 L 2.515625 -7.09375 C 3.546875 -6.195312 4.757812 -5.460938 6.15625 -4.890625 C 7.550781 -4.316406 8.796875 -4.03125 9.890625 -4.03125 C 10.722656 -4.03125 11.375 -4.179688 11.84375 -4.484375 C 12.3125 -4.785156 12.546875 -5.226562 12.546875 -5.8125 C 12.546875 -6.375 12.273438 -6.84375 11.734375 -7.21875 C 11.203125 -7.59375 10.535156 -7.875 9.734375 -8.0625 C 8.941406 -8.25 8.078125 -8.5 7.140625 -8.8125 C 6.210938 -9.125 5.347656 -9.460938 4.546875 -9.828125 C 3.753906 -10.203125 3.085938 -10.789062 2.546875 -11.59375 C 2.015625 -12.40625 1.75 -13.375 1.75 -14.5 C 1.75 -16.363281 2.492188 -17.851562 3.984375 -18.96875 C 5.472656 -20.09375 7.441406 -20.65625 9.890625 -20.65625 Z M 9.890625 -20.65625 "/></g></g></g><g fill="#ffffff" fill-opacity="1"><g transform="translate(93.920318, 62.775187)"><g><path d="M 11.734375 -20.59375 C 14.898438 -20.59375 17.53125 -19.601562 19.625 -17.625 C 21.726562 -15.65625 22.78125 -13.191406 22.78125 -10.234375 C 22.78125 -7.265625 21.722656 -4.773438 19.609375 -2.765625 C 17.503906 -0.765625 14.875 0.234375 11.71875 0.234375 C 8.570312 0.234375 5.945312 -0.757812 3.84375 -2.75 C 1.75 -4.75 0.703125 -7.242188 0.703125 -10.234375 C 0.703125 -13.210938 1.75 -15.679688 3.84375 -17.640625 C 5.945312 -19.609375 8.578125 -20.59375 11.734375 -20.59375 Z M 11.78125 -16.25 C 10.1875 -16.25 8.828125 -15.671875 7.703125 -14.515625 C 6.578125 -13.359375 6.015625 -11.921875 6.015625 -10.203125 C 6.015625 -8.492188 6.582031 -7.050781 7.71875 -5.875 C 8.851562 -4.695312 10.207031 -4.109375 11.78125 -4.109375 C 13.351562 -4.109375 14.6875 -4.695312 15.78125 -5.875 C 16.882812 -7.050781 17.4375 -8.492188 17.4375 -10.203125 C 17.4375 -11.921875 16.882812 -13.359375 15.78125 -14.515625 C 14.6875 -15.671875 13.351562 -16.25 11.78125 -16.25 Z M 11.78125 -16.25 "/></g></g></g><g fill="#ffffff" fill-opacity="1"><g transform="translate(117.391164, 62.775187)"><g><path d="M 7.234375 -4.34375 L 15.90625 -4.34375 L 15.90625 0 L 2.046875 0 L 2.046875 -20.421875 L 7.234375 -20.421875 Z M 7.234375 -4.34375 "/></g></g></g><g fill="#ffffff" fill-opacity="1"><g transform="translate(133.718711, 62.775187)"><g><path d="M 20.421875 -20.421875 L 20.421875 -8.578125 C 20.421875 -5.867188 19.582031 -3.722656 17.90625 -2.140625 C 16.238281 -0.554688 13.972656 0.234375 11.109375 0.234375 C 8.234375 0.234375 5.941406 -0.554688 4.234375 -2.140625 C 2.535156 -3.722656 1.6875 -5.867188 1.6875 -8.578125 L 1.6875 -20.421875 L 6.890625 -20.421875 L 6.890625 -8.578125 C 6.890625 -7.210938 7.28125 -6.125 8.0625 -5.3125 C 8.851562 -4.507812 9.878906 -4.109375 11.140625 -4.109375 C 12.390625 -4.109375 13.382812 -4.503906 14.125 -5.296875 C 14.875 -6.097656 15.25 -7.191406 15.25 -8.578125 L 15.25 -20.421875 Z M 20.421875 -20.421875 "/></g></g></g><g fill="#ffffff" fill-opacity="1"><g transform="translate(155.819206, 62.775187)"><g><path d="M 17.65625 -16.25 L 11.5 -16.25 L 11.5 0 L 6.296875 0 L 6.296875 -16.25 L 0.203125 -16.25 L 0.203125 -20.453125 L 17.65625 -20.453125 Z M 17.65625 -16.25 "/></g></g></g><g fill="#ffffff" fill-opacity="1"><g transform="translate(173.633719, 62.775187)"><g><path d="M 7.234375 0 L 2.046875 0 L 2.046875 -20.421875 L 7.234375 -20.421875 Z M 7.234375 0 "/></g></g></g><g fill="#ffffff" fill-opacity="1"><g transform="translate(182.905435, 62.775187)"><g><path d="M 11.734375 -20.59375 C 14.898438 -20.59375 17.53125 -19.601562 19.625 -17.625 C 21.726562 -15.65625 22.78125 -13.191406 22.78125 -10.234375 C 22.78125 -7.265625 21.722656 -4.773438 19.609375 -2.765625 C 17.503906 -0.765625 14.875 0.234375 11.71875 0.234375 C 8.570312 0.234375 5.945312 -0.757812 3.84375 -2.75 C 1.75 -4.75 0.703125 -7.242188 0.703125 -10.234375 C 0.703125 -13.210938 1.75 -15.679688 3.84375 -17.640625 C 5.945312 -19.609375 8.578125 -20.59375 11.734375 -20.59375 Z M 11.78125 -16.25 C 10.1875 -16.25 8.828125 -15.671875 7.703125 -14.515625 C 6.578125 -13.359375 6.015625 -11.921875 6.015625 -10.203125 C 6.015625 -8.492188 6.582031 -7.050781 7.71875 -5.875 C 8.851562 -4.695312 10.207031 -4.109375 11.78125 -4.109375 C 13.351562 -4.109375 14.6875 -4.695312 15.78125 -5.875 C 16.882812 -7.050781 17.4375 -8.492188 17.4375 -10.203125 C 17.4375 -11.921875 16.882812 -13.359375 15.78125 -14.515625 C 14.6875 -15.671875 13.351562 -16.25 11.78125 -16.25 Z M 11.78125 -16.25 "/></g></g></g><g fill="#ffffff" fill-opacity="1"><g transform="translate(206.37628, 62.775187)"><g><path d="M 20.890625 0 L 16.3125 0 L 6.90625 -12.578125 L 6.90625 0 L 2.046875 0 L 2.046875 -20.421875 L 6.625 -20.421875 L 16.046875 -7.8125 L 16.046875 -20.421875 L 20.890625 -20.421875 Z M 20.890625 0 "/></g></g></g><g fill="#ffffff" fill-opacity="1"><g transform="translate(229.293152, 62.775187)"><g><path d="M 9.890625 -20.65625 C 12.941406 -20.65625 15.625 -19.894531 17.9375 -18.375 L 15.984375 -14.328125 C 14.910156 -14.941406 13.757812 -15.445312 12.53125 -15.84375 C 11.3125 -16.25 10.285156 -16.453125 9.453125 -16.453125 C 7.953125 -16.453125 7.203125 -15.957031 7.203125 -14.96875 C 7.203125 -14.320312 7.570312 -13.800781 8.3125 -13.40625 C 9.050781 -13.019531 9.953125 -12.6875 11.015625 -12.40625 C 12.078125 -12.125 13.132812 -11.785156 14.1875 -11.390625 C 15.25 -10.992188 16.148438 -10.347656 16.890625 -9.453125 C 17.628906 -8.554688 18 -7.425781 18 -6.0625 C 18 -4.101562 17.226562 -2.570312 15.6875 -1.46875 C 14.15625 -0.375 12.203125 0.171875 9.828125 0.171875 C 8.140625 0.171875 6.46875 -0.117188 4.8125 -0.703125 C 3.15625 -1.285156 1.71875 -2.082031 0.5 -3.09375 L 2.515625 -7.09375 C 3.546875 -6.195312 4.757812 -5.460938 6.15625 -4.890625 C 7.550781 -4.316406 8.796875 -4.03125 9.890625 -4.03125 C 10.722656 -4.03125 11.375 -4.179688 11.84375 -4.484375 C 12.3125 -4.785156 12.546875 -5.226562 12.546875 -5.8125 C 12.546875 -6.375 12.273438 -6.84375 11.734375 -7.21875 C 11.203125 -7.59375 10.535156 -7.875 9.734375 -8.0625 C 8.941406 -8.25 8.078125 -8.5 7.140625 -8.8125 C 6.210938 -9.125 5.347656 -9.460938 4.546875 -9.828125 C 3.753906 -10.203125 3.085938 -10.789062 2.546875 -11.59375 C 2.015625 -12.40625 1.75 -13.375 1.75 -14.5 C 1.75 -16.363281 2.492188 -17.851562 3.984375 -18.96875 C 5.472656 -20.09375 7.441406 -20.65625 9.890625 -20.65625 Z M 9.890625 -20.65625 "/></g></g></g></svg>